<?xml version="1.0" encoding="UTF-8" standalone="no"?>
<!-- Created with Inkscape (http://www.inkscape.org/) -->

<svg
   xmlns:dc="http://purl.org/dc/elements/1.1/"
   xmlns:cc="http://creativecommons.org/ns#"
   xmlns:rdf="http://www.w3.org/1999/02/22-rdf-syntax-ns#"
   xmlns:svg="http://www.w3.org/2000/svg"
   xmlns="http://www.w3.org/2000/svg"
   xmlns:xlink="http://www.w3.org/1999/xlink"
   xmlns:sodipodi="http://sodipodi.sourceforge.net/DTD/sodipodi-0.dtd"
   xmlns:inkscape="http://www.inkscape.org/namespaces/inkscape"
   id="svg2816"
   version="1.1"
   inkscape:version="0.47 r22583"
   width="658"
   height="115"
   sodipodi:docname="pyvttbl_logo_.png">
  <metadata
     id="metadata2822">
    <rdf:RDF>
      <cc:Work
         rdf:about="">
        <dc:format>image/svg+xml</dc:format>
        <dc:type
           rdf:resource="http://purl.org/dc/dcmitype/StillImage" />
        <dc:title></dc:title>
      </cc:Work>
    </rdf:RDF>
  </metadata>
  <defs
     id="defs2820">
    <inkscape:perspective
       sodipodi:type="inkscape:persp3d"
       inkscape:vp_x="0 : 0.5 : 1"
       inkscape:vp_y="0 : 1000 : 0"
       inkscape:vp_z="1 : 0.5 : 1"
       inkscape:persp3d-origin="0.5 : 0.33333333 : 1"
       id="perspective2824" />
  </defs>
  <sodipodi:namedview
     pagecolor="#ffffff"
     bordercolor="#666666"
     borderopacity="1"
     objecttolerance="10"
     gridtolerance="10"
     guidetolerance="10"
     inkscape:pageopacity="0"
     inkscape:pageshadow="2"
     inkscape:window-width="1031"
     inkscape:window-height="891"
     id="namedview2818"
     showgrid="false"
     inkscape:zoom="1"
     inkscape:cx="426.20366"
     inkscape:cy="57.5"
     inkscape:window-x="0"
     inkscape:window-y="0"
     inkscape:window-maximized="0"
     inkscape:current-layer="svg2816" />
  <image
     xlink:href="file:///D:/pyvttbl_logo_.png"
     width="658"
     height="115"
     id="image2826"
     x="0"
     y="0" />
  <text
     xml:space="preserve"
     style="font-size:40px;font-style:normal;font-weight:normal;line-height:125%;fill:#000000;fill-opacity:1;stroke:none;font-family:Bitstream Vera Sans"
     x="247.35927"
     y="85.146294"
     id="text2828"
     sodipodi:linespacing="125%"><tspan
       sodipodi:role="line"
       id="tspan2830"
       x="247.35927"
       y="85.146294"
       style="font-size:127px;font-style:normal;font-variant:normal;font-weight:normal;font-stretch:normal;text-align:start;line-height:125%;writing-mode:lr-tb;text-anchor:start;font-family:Bauhaus 93;-inkscape-font-specification:'Bauhaus 93,'">pyvttbl</tspan></text>
  <path
     d="m 107.26874,105.65572 c 0,-10.079174 -0.32134,-9.251786 5.49893,-14.159053 1.39103,-1.172824 3.05324,-2.612199 3.69381,-3.198611 0.64056,-0.586412 1.32325,-1.066204 1.51707,-1.066204 0.19383,0 1.37268,1.028125 2.61967,2.284722 1.247,1.256597 3.41883,3.234731 4.8263,4.395851 l 2.55903,2.111129 0,9.312486 0,9.31248 -10.35741,0 -10.3574,0 0,-8.9928 z"
     id="path2832" />
  <path
     d="m 8.5687366,106.14178 c 0,-0.97831 -0.2741666,-1.9482 -0.6092592,-2.1553 -0.8507494,-0.52579 -0.7628863,-4.172115 0.1218518,-5.05685 0.4021111,-0.402111 1.7729445,-0.731111 3.0462968,-0.731111 1.273351,0 2.315185,-0.274167 2.315185,-0.60926 0,-0.335092 0.608146,-0.609259 1.351436,-0.609259 0.74329,0 1.934215,-0.678221 2.6465,-1.507161 1.125841,-1.310218 1.962495,-1.553764 6.402937,-1.863816 2.80933,-0.196163 5.251113,-0.585583 5.426185,-0.865385 0.175072,-0.279797 2.443104,-0.70704 5.040071,-0.949427 2.596968,-0.242388 4.72176,-0.682663 4.72176,-0.978385 0,-0.295723 1.23375,-0.537678 2.741666,-0.537678 1.507917,0 2.741667,-0.24689 2.741667,-0.548638 0,-0.301754 2.513278,-0.644462 5.585061,-0.761574 3.76628,-0.143596 5.667671,-0.460941 5.838735,-0.97451 0.13952,-0.418866 0.916243,-0.761574 1.726049,-0.761574 0.809808,0 1.472377,-0.274167 1.472377,-0.609259 0,-0.335093 0.41125,-0.60926 0.913889,-0.60926 0.502639,0 0.913889,0.274167 0.913889,0.60926 0,0.335092 0.41125,0.609259 0.913889,0.609259 0.502639,0 0.913889,-0.238513 0.913889,-0.530025 0,-0.463019 4.077188,-1.295237 6.701852,-1.367947 1.1769,-0.03261 3.82973,-1.273161 4.407801,-2.061242 0.277725,-0.378626 0.451157,-0.321185 0.456945,0.151343 0.0051,0.418866 0.557661,0.761575 1.227846,0.761575 0.670185,0 1.218519,-0.223552 1.218519,-0.496781 0,-0.466016 1.972105,-0.869524 12.489815,-2.555516 2.345648,-0.376008 4.813148,-0.919078 5.483333,-1.206822 1.478154,-0.634645 3.512367,-1.080405 9.246438,-2.026184 2.4048,-0.396648 4.57528,-0.926804 4.8233,-1.178123 0.24802,-0.25132 1.18205,-0.456945 2.07563,-0.456945 0.89358,0 1.82971,-0.205625 2.08028,-0.456944 0.25057,-0.25132 2.55813,-0.806306 5.12793,-1.233302 8.36848,-1.390509 8.93338,-1.508297 9.24179,-1.92703 0.26717,-0.362742 3.91795,-1.064706 11.72824,-2.255086 1.2566,-0.19152 2.28473,-0.558162 2.28473,-0.814761 0,-0.256598 1.91286,-0.655032 4.2508,-0.885406 2.33794,-0.230375 4.38811,-0.641026 4.55592,-0.912557 0.16782,-0.271531 2.22407,-0.682781 4.56945,-0.913889 2.34538,-0.231108 4.4239,-0.678382 4.61892,-0.993944 0.19503,-0.315561 1.28182,-0.573747 2.41509,-0.573747 1.13327,0 2.20762,-0.23806 2.38745,-0.529022 0.17982,-0.290961 1.9535,-0.713044 3.94152,-0.937963 1.98801,-0.224917 3.94537,-0.807533 4.34968,-1.2947 0.94672,-1.140726 0.5185,-8.940501 -0.50966,-9.283222 -0.78404,-0.261345 -1.02128,-4.781336 -0.26853,-5.115896 0.25132,-0.111697 0.95551,-1.16267 1.56486,-2.335494 1.93818,-3.730417 3.27992,-6.053547 3.99144,-6.910865 0.38012,-0.458026 1.3745,-2.118005 2.20972,-3.688841 0.83523,-1.570836 2.20549,-3.492664 3.04504,-4.270729 0.83954,-0.778065 1.52644,-1.74878 1.52644,-2.157145 0,-0.408365 0.34271,-0.616931 0.76158,-0.46348 0.92445,0.338671 5.33102,-1.992236 5.33102,-2.819908 0,-0.32466 0.47979,-0.03923 1.0662,0.634297 0.58641,0.673523 1.68308,1.419366 2.43704,1.657427 0.75396,0.238061 1.37083,0.658808 1.37083,0.934993 0,0.276185 0.68542,0.674183 1.52315,0.88444 0.83773,0.210257 1.52315,0.651229 1.52315,0.979937 0,0.328708 0.41125,0.597652 0.91389,0.597652 0.50263,0 0.91388,0.255691 0.91388,0.568202 0,0.312512 0.61688,0.762981 1.37084,1.001042 0.75396,0.238061 1.78208,0.902735 2.28472,1.477052 0.50264,0.574317 1.53076,1.238991 2.28472,1.477052 0.75396,0.238062 1.37084,0.68853 1.37084,1.001042 0,0.312511 0.41125,0.568203 0.91388,0.568203 0.50264,0 0.91389,0.255691 0.91389,0.568202 0,0.312512 0.52647,0.735297 1.16993,0.939522 0.64345,0.204226 2.17495,1.291888 3.40331,2.417026 2.21595,2.029732 2.23179,2.078899 2.02869,6.296243 -0.25013,5.193658 0.25948,5.85321 4.07988,5.280306 1.50529,-0.225731 2.88677,-0.652951 3.06997,-0.949378 0.57851,-0.936039 3.44385,-0.58365 4.28714,0.527245 0.44516,0.586412 0.81808,1.765329 0.82875,2.619815 0.0107,0.854486 0.32994,1.864182 0.70953,2.24377 1.24544,1.245448 0.10238,2.599841 -2.19419,2.599841 -1.18334,0 -2.15153,0.241956 -2.15153,0.537679 0,0.295723 -2.05625,0.730365 -4.56944,0.965871 -2.51319,0.235505 -4.56944,0.678967 -4.56944,0.985469 0,0.306503 -0.94341,0.557277 -2.09645,0.557277 -1.15305,0 -2.24364,0.238142 -2.42352,0.529205 -0.17989,0.291063 -2.24602,0.718292 -4.59139,0.9494 -2.34538,0.231108 -4.4239,0.678382 -4.61892,0.993944 -0.19503,0.315561 -0.88362,0.573748 -1.5302,0.573748 -1.40758,0 -3.62656,1.775975 -3.62656,2.902544 0,0.442179 -0.55894,1.403917 -1.2421,2.137196 -0.68315,0.733279 -1.39829,1.955565 -1.5892,2.716192 -0.1909,0.760626 -0.59154,1.382957 -0.89031,1.382957 -0.29876,0 -0.54321,0.514763 -0.54321,1.143917 0,0.629156 -0.41125,1.485226 -0.91389,1.902379 -0.50263,0.417153 -0.91388,1.273223 -0.91388,1.902379 0,0.629154 -0.27417,1.143917 -0.60926,1.143917 -0.3351,0 -0.60926,0.29375 -0.60926,0.652778 0,1.16265 -1.70084,2.393519 -3.30741,2.393519 -0.86167,0 -1.56667,-0.257617 -1.56667,-0.572482 0,-0.314864 -1.02812,-0.657573 -2.28472,-0.761574 -2.23016,-0.184577 -2.28929,-0.252901 -2.47611,-2.861221 -0.10527,-1.46967 0.10036,-2.963878 0.45694,-3.320463 0.84305,-0.84305 0.83222,-3.782272 -0.0189,-5.145223 -0.49876,-0.798636 -1.26911,-1.01111 -3.05011,-0.841264 -1.31056,0.124981 -2.53437,0.472444 -2.71959,0.77214 -0.18523,0.299696 -1.41727,0.544901 -2.73786,0.544901 -1.32059,0 -2.40108,0.246342 -2.40108,0.547425 0,0.301083 -1.92025,0.740268 -4.26722,0.975965 -2.34698,0.235698 -4.40214,0.646839 -4.56704,0.913647 -0.16489,0.266809 -2.22114,0.678059 -4.56944,0.913889 -2.3483,0.235831 -4.42182,0.675015 -4.60781,0.975965 -0.186,0.300951 -1.12832,0.547183 -2.09404,0.547183 -0.96573,0 -1.90518,0.241585 -2.08766,0.536855 -0.18249,0.295271 -2.392,0.729912 -4.91003,0.965871 -2.51804,0.235959 -4.57824,0.679791 -4.57824,0.986293 0,0.306503 -0.9434,0.557278 -2.09645,0.557278 -1.15305,0 -2.24363,0.238142 -2.42352,0.529204 -0.17989,0.291063 -2.24601,0.718292 -4.59139,0.9494 -2.34538,0.231108 -4.42389,0.678383 -4.61892,0.993944 -0.19503,0.315562 -1.43508,0.573748 -2.75568,0.573748 -1.32059,0 -2.40108,0.246341 -2.40108,0.547425 0,0.301083 -1.92025,0.740268 -4.26722,0.975965 -2.34697,0.235698 -4.41941,0.674773 -4.6054,0.975725 -0.186,0.300949 -1.41867,0.547181 -2.73926,0.547181 -1.32059,0 -2.40108,0.236417 -2.40108,0.525377 0,0.288953 -1.57646,0.709044 -3.50324,0.933525 -1.926783,0.224488 -4.325741,0.657494 -5.331019,0.96224 -1.005278,0.304745 -3.335694,0.826813 -5.178704,1.160151 -1.843009,0.333332 -4.584675,0.912987 -6.092592,1.288114 -1.507917,0.375134 -4.386667,0.94799 -6.397222,1.273017 -2.010556,0.325022 -4.131625,0.858026 -4.713492,1.184449 -0.581867,0.326423 -2.158325,0.593498 -3.503241,0.593498 -1.344915,0 -2.445304,0.238756 -2.445304,0.530561 0,0.291811 -1.60279,0.711901 -3.561756,0.933531 -2.147432,0.242955 -4.037248,0.845957 -4.759211,1.518567 -0.78223,0.728759 -2.663318,1.272078 -5.424819,1.566862 -2.325049,0.2482 -4.381345,0.698084 -4.569546,0.999752 -0.188201,0.301669 -2.929867,0.795173 -6.092592,1.096683 -3.162725,0.30151 -6.98416,0.87989 -8.492076,1.28531 -1.507917,0.40542 -4.52375,1.0976 -6.701852,1.53819 -2.178102,0.44059 -5.193935,1.10894 -6.701852,1.48521 -1.507917,0.37629 -4.249583,0.94618 -6.092593,1.26643 -1.843009,0.32024 -3.967801,0.84855 -4.721759,1.174 -1.2437014,0.53687 -1.3708334,0.42678 -1.3708334,-1.18702 z M 181.16046,61.033704 c 1.38047,0 4.09346,-1.780529 4.09346,-2.68653 0,-0.535517 1.11563,-1.878189 3.19861,-3.849567 0.92151,-0.872131 1.67547,-1.834123 1.67547,-2.13776 0,-0.303638 0.3427,-0.934222 0.76157,-1.401296 2.78609,-3.106749 2.76395,-2.918441 0.60926,-5.183784 -0.92151,-0.968825 -2.00504,-2.112944 -2.40786,-2.542486 -0.40281,-0.429541 -1.08823,-1.110562 -1.52315,-1.513379 -0.43491,-0.402817 -1.14427,-1.156775 -1.57635,-1.675463 -0.99494,-1.194384 -1.7026,-1.192024 -2.69362,0.009 -0.43208,0.523629 -1.53955,1.665615 -2.46106,2.537746 -0.9215,0.872131 -1.67546,1.850923 -1.67546,2.175094 0,0.32417 -0.48282,1.03281 -1.07294,1.574754 -0.59011,0.541943 -1.8664,2.050959 -2.8362,3.353368 -1.45828,1.958423 -1.64154,2.562945 -1.05947,3.494974 0.38708,0.619826 0.70379,2.485965 0.70379,4.146973 0,2.401584 0.26882,3.208301 1.31272,3.939476 0.92075,0.644921 1.63646,0.746195 2.39698,0.339177 0.59635,-0.319157 1.74576,-0.580284 2.55425,-0.580284 z"
     id="path2834" />
</svg>
